<?xml version="1.0" standalone="no"?>
<!DOCTYPE svg PUBLIC "-//W3C//DTD SVG 20010904//EN"
 "http://www.w3.org/TR/2001/REC-SVG-20010904/DTD/svg10.dtd">
<svg version="1.0" xmlns="http://www.w3.org/2000/svg"
 width="1920.000000pt" height="1080.000000pt" viewBox="0 0 1920.000000 1080.000000"
 preserveAspectRatio="xMidYMid meet">

<g transform="translate(0.000000,1080.000000) scale(0.100000,-0.100000)"
fill="#000000" stroke="none">
<path d="M14440 8712 c-410 -20 -747 -37 -749 -38 -4 -4 -240 -2447 -236
-2452 4 -4 1646 75 1651 81 6 5 62 580 58 586 -2 2 -211 -6 -465 -18 -254 -12
-463 -20 -465 -18 -2 2 3 83 13 179 l17 175 105 6 c58 3 236 12 395 18 182 8
289 17 291 24 2 5 7 46 11 90 l7 80 12 -80 c57 -381 285 -700 623 -873 214
-110 463 -154 687 -122 85 12 227 48 239 60 6 6 -8 47 -34 105 -24 52 -43 95
-44 95 -1 0 -35 -9 -76 -20 -100 -27 -276 -37 -377 -20 -445 71 -772 423 -809
871 l-7 76 -98 5 c-55 3 -101 7 -103 9 -5 4 11 159 16 165 2 1 49 -1 104 -4
l101 -7 17 69 c9 38 34 107 56 153 207 443 701 656 1165 502 50 -17 109 -41
132 -54 l43 -23 60 83 c33 46 60 88 60 93 0 27 -251 126 -390 153 -99 20 -338
17 -440 -5 -408 -87 -744 -382 -874 -766 -13 -39 -25 -72 -27 -74 -7 -7 -778
-40 -784 -34 -5 5 22 319 29 325 1 1 202 12 447 24 244 12 446 23 448 25 4 4
59 537 61 582 0 16 23 16 -870 -26z"/>
<path d="M13113 8650 c-189 -9 -345 -19 -348 -22 -3 -2 -36 -330 -75 -729 -70
-733 -78 -786 -126 -882 -69 -135 -219 -208 -399 -194 -163 12 -248 103 -261
277 -3 41 20 328 64 780 39 393 69 716 68 717 0 1 -162 -6 -358 -15 l-358 -16
-5 -31 c-2 -16 -37 -367 -76 -780 -61 -638 -70 -768 -65 -870 7 -147 40 -286
92 -387 54 -104 173 -220 282 -277 205 -105 515 -135 837 -81 532 90 855 419
940 955 10 66 155 1529 155 1569 0 3 -6 5 -12 5 -7 -1 -167 -9 -355 -19z"/>
<path d="M9780 8526 c-318 -57 -571 -187 -790 -406 -203 -204 -336 -449 -402
-741 -20 -90 -23 -131 -23 -304 0 -174 3 -212 23 -288 78 -312 254 -540 515
-670 179 -90 352 -123 587 -114 222 9 402 57 604 160 l100 51 106 -112 106
-112 181 172 182 171 -100 107 c-54 59 -99 110 -99 113 0 3 20 34 44 69 264
381 336 899 180 1295 -62 158 -183 317 -317 419 -85 64 -245 139 -364 170 -84
22 -124 27 -278 30 -122 2 -204 -1 -255 -10z m255 -701 c155 -41 258 -146 301
-308 29 -109 13 -306 -35 -429 l-10 -28 -107 113 c-58 61 -111 113 -118 114
-6 1 -89 -74 -185 -166 l-175 -169 102 -108 c55 -60 98 -112 94 -116 -5 -5
-45 -13 -91 -20 -324 -45 -546 168 -528 507 18 313 215 559 492 615 68 13 198
11 260 -5z"/>
<path d="M16922 8323 l-61 -87 70 -74 c113 -122 189 -259 235 -427 27 -99 30
-302 6 -415 -49 -237 -187 -448 -384 -587 l-77 -54 45 -96 c25 -54 46 -98 47
-99 1 -1 40 23 87 53 103 67 249 211 317 313 268 400 271 910 8 1305 -54 82
-182 227 -215 245 -14 7 -28 -7 -78 -77z"/>
<path d="M7070 8367 c-234 -11 -427 -22 -429 -23 -4 -4 -240 -2447 -236 -2452
3 -4 709 30 714 34 2 2 21 177 41 389 20 212 40 388 44 392 4 4 64 10 133 13
l126 5 22 -50 c12 -27 84 -200 160 -382 l138 -333 61 0 c69 0 720 31 724 34 1
2 -92 200 -208 442 -115 241 -210 444 -210 450 0 6 26 28 58 49 165 110 281
291 328 515 25 117 25 338 0 435 -70 271 -269 440 -579 490 -121 20 -347 18
-887 -8z m670 -659 c60 -31 85 -76 85 -153 0 -120 -63 -208 -170 -241 -42 -12
-393 -41 -400 -32 -1 2 7 101 18 220 l21 217 51 4 c27 2 118 4 200 5 139 2
154 0 195 -20z"/>
<path d="M15935 8330 c-79 -18 -119 -68 -119 -147 0 -155 203 -211 282 -77 42
71 17 165 -54 205 -39 22 -73 28 -109 19z"/>
<path d="M5100 8306 c-318 -57 -571 -187 -790 -406 -203 -204 -336 -449 -402
-741 -20 -90 -23 -131 -23 -304 0 -221 13 -297 76 -453 135 -337 434 -562 816
-613 111 -15 342 -7 448 16 644 135 1105 657 1166 1323 37 405 -109 772 -394
988 -85 64 -245 139 -364 170 -84 22 -124 27 -278 30 -122 2 -204 -1 -255 -10z
m255 -701 c160 -42 268 -158 305 -326 21 -93 9 -267 -25 -368 -84 -248 -280
-404 -537 -427 -307 -27 -513 185 -495 511 18 313 215 559 492 615 68 13 198
11 260 -5z"/>
<path d="M2418 8146 l-428 -20 -5 -31 c-2 -16 -52 -536 -111 -1155 -58 -619
-110 -1136 -116 -1150 -11 -24 -12 -22 -19 23 -15 98 -93 167 -187 167 -95 0
-158 -54 -191 -163 -25 -86 -26 -132 -6 -212 30 -112 105 -199 216 -249 101
-45 211 -43 319 7 96 45 192 174 206 278 l6 47 184 7 183 7 6 32 c3 17 18 172
34 344 16 173 32 316 34 319 3 3 88 9 189 14 326 17 484 50 673 144 180 89
301 204 383 364 67 129 95 233 111 405 19 193 -14 379 -92 516 -46 83 -148
178 -242 226 -216 112 -332 120 -1147 80z m623 -647 c95 -32 135 -101 127
-221 -8 -116 -60 -194 -163 -239 -41 -18 -81 -24 -222 -32 -95 -6 -176 -8
-179 -4 -3 3 4 116 17 251 l23 245 51 4 c122 8 314 6 346 -4z"/>
<path d="M16903 7620 c-56 -25 -83 -70 -83 -136 0 -121 120 -191 224 -131 104
59 101 210 -4 265 -54 27 -82 27 -137 2z"/>
<path d="M15692 7100 c-129 -79 -74 -280 76 -280 155 0 214 196 85 281 -38 26
-118 25 -161 -1z"/>
<path d="M525 6321 c-16 -26 -27 -190 -22 -321 8 -212 45 -358 138 -543 88
-175 206 -325 342 -433 45 -35 84 -64 87 -64 3 0 22 51 43 113 l37 112 -42 35
c-74 62 -195 218 -247 320 -116 224 -146 404 -118 699 2 22 -7 27 -98 57 -110
38 -111 38 -120 25z"/>
<path d="M17676 5915 c-257 -42 -471 -149 -628 -313 -167 -175 -249 -395 -235
-633 10 -164 58 -271 166 -372 114 -105 263 -163 578 -226 230 -46 273 -61
309 -104 23 -27 26 -38 22 -83 -6 -73 -42 -118 -127 -158 -62 -29 -72 -31
-181 -30 -125 0 -172 12 -243 61 -42 29 -87 97 -87 131 0 12 -6 22 -14 22 -12
0 -616 -208 -624 -215 -9 -8 41 -177 69 -231 105 -208 355 -346 673 -372 113
-9 110 -14 70 109 -15 44 -25 81 -23 83 2 2 48 17 101 34 l96 29 30 -91 c17
-50 33 -106 37 -123 6 -29 10 -33 40 -33 45 0 204 42 300 79 218 84 423 267
523 466 56 113 74 188 79 336 6 150 -5 210 -55 303 -85 156 -328 285 -686 362
-271 58 -327 81 -352 141 -34 79 38 185 147 217 62 19 172 21 220 5 54 -19 99
-57 122 -107 12 -26 22 -49 24 -50 1 -4 614 168 622 174 11 9 -37 167 -72 237
-81 161 -245 285 -452 338 -106 27 -325 34 -449 14z"/>
<path d="M15430 5806 c-318 -57 -571 -187 -790 -406 -203 -204 -336 -449 -402
-741 -20 -90 -23 -131 -23 -304 0 -221 13 -297 76 -453 135 -337 434 -562 816
-613 111 -15 342 -7 448 16 644 135 1105 657 1166 1323 37 405 -109 772 -394
988 -85 64 -245 139 -364 170 -84 22 -124 27 -278 30 -122 2 -204 -1 -255 -10z
m255 -701 c160 -42 268 -158 305 -326 21 -93 9 -267 -25 -368 -84 -248 -280
-404 -537 -427 -307 -27 -513 185 -495 511 18 313 215 559 492 615 68 13 198
11 260 -5z"/>
<path d="M13796 5699 c-204 -11 -372 -23 -375 -28 -3 -4 -168 -258 -365 -565
-197 -306 -360 -555 -361 -554 -1 2 -116 239 -254 528 -138 289 -255 528 -260
533 -7 7 -770 -22 -780 -29 -4 -4 -240 -2447 -236 -2452 3 -3 709 30 714 34 3
3 129 1279 131 1324 0 8 3 10 8 5 5 -6 113 -224 241 -485 l232 -475 109 3 108
3 333 514 c184 283 334 513 335 512 2 -1 -26 -301 -61 -667 -35 -365 -62 -666
-60 -668 4 -4 708 28 713 33 4 3 232 2383 232 2423 0 24 -4 32 -17 31 -10 -1
-184 -10 -387 -20z"/>
<path d="M2830 5560 c0 -22 -128 -199 -195 -268 -133 -140 -87 -128 -550 -148
-220 -9 -402 -19 -404 -20 -2 -2 -7 -43 -12 -91 -10 -100 -11 -102 -144 -192
-145 -99 -322 -166 -468 -177 l-84 -7 -36 -111 c-20 -62 -37 -116 -37 -120 0
-12 200 2 290 20 97 20 243 74 349 130 46 24 85 43 87 41 2 -1 -39 -439 -90
-972 -52 -534 -92 -971 -91 -973 1 -1 335 13 741 32 406 20 816 38 909 41 221
7 767 34 770 37 1 2 109 165 240 363 l237 360 170 -340 c94 -187 172 -342 173
-343 4 -4 787 30 793 33 2 2 -139 274 -313 605 -174 331 -317 606 -318 610 -1
4 186 283 416 620 230 336 417 613 415 615 -2 2 -181 -5 -397 -15 -294 -14
-396 -23 -402 -32 -48 -81 -426 -647 -432 -648 -4 0 -77 141 -163 313 l-156
312 -357 -17 c-196 -9 -374 -18 -397 -20 l-41 -3 303 -575 c167 -316 302 -582
300 -590 -1 -8 -187 -286 -412 -618 -299 -440 -410 -597 -412 -580 -1 13 8
131 21 263 13 132 22 242 21 244 -2 2 -211 -6 -465 -18 -254 -12 -463 -20
-465 -18 -2 2 4 83 13 180 l17 177 51 1 c27 0 205 8 395 17 l345 17 27 280
c15 154 25 281 23 283 -2 2 -177 -4 -389 -14 -212 -10 -388 -15 -391 -12 -5 5
22 319 29 325 1 1 202 12 447 24 244 12 446 23 448 25 7 6 62 586 57 591 -3 3
-100 0 -217 -6 -116 -6 -213 -10 -215 -8 -2 1 23 38 55 80 58 78 140 222 131
230 -13 11 -220 75 -220 67z"/>
<path d="M10795 5552 c-176 -8 -322 -16 -324 -18 -4 -4 -240 -2447 -236 -2452
3 -3 709 30 714 34 2 2 55 534 117 1181 62 648 115 1199 118 1226 l5 47 -37
-2 c-20 0 -181 -8 -357 -16z"/>
<path d="M9411 5494 c-498 -24 -905 -45 -906 -47 -4 -4 -65 -651 -62 -653 2
-2 129 3 282 11 154 7 281 12 283 10 2 -1 -35 -405 -82 -896 -48 -491 -85
-893 -84 -895 6 -5 707 31 712 37 4 3 45 406 92 895 47 489 87 890 89 892 2 2
129 10 281 18 156 8 280 18 284 24 3 5 18 146 34 312 15 167 30 311 32 321 4
13 -1 17 -23 16 -15 -1 -435 -21 -932 -45z"/>
<path d="M7436 5435 c-257 -42 -471 -149 -628 -313 -167 -175 -249 -395 -235
-633 10 -164 58 -271 166 -372 114 -105 263 -163 578 -226 230 -46 273 -61
309 -104 23 -27 26 -38 22 -83 -6 -73 -42 -118 -127 -158 -62 -29 -72 -31
-181 -30 -125 0 -172 12 -243 61 -42 29 -87 97 -87 131 0 12 -6 22 -14 22 -12
0 -616 -208 -624 -215 -9 -8 41 -177 69 -231 107 -213 350 -344 691 -374 375
-32 729 78 961 299 190 182 277 376 277 622 0 186 -37 279 -156 387 -112 103
-317 190 -588 248 -271 58 -327 81 -352 141 -34 79 38 185 147 217 62 19 172
21 220 5 54 -19 99 -57 122 -107 12 -26 22 -49 24 -50 1 -4 614 168 622 174
11 9 -37 167 -72 237 -81 161 -245 285 -452 338 -106 27 -325 34 -449 14z"/>
<path d="M6085 5332 c-176 -8 -322 -16 -324 -18 -4 -4 -240 -2447 -236 -2452
3 -3 709 30 714 34 2 2 55 534 117 1181 62 648 115 1199 118 1226 l5 47 -37
-2 c-20 0 -181 -8 -357 -16z"/>
</g>
</svg>
