<?xml version="1.0" encoding="UTF-8" standalone="no"?>
<!DOCTYPE svg PUBLIC "-//W3C//DTD SVG 1.1//EN" "http://www.w3.org/Graphics/SVG/1.1/DTD/svg11.dtd">
<svg width="100%" height="100%" viewBox="0 0 1991 1668" version="1.1" xmlns="http://www.w3.org/2000/svg" xmlns:xlink="http://www.w3.org/1999/xlink" xml:space="preserve" xmlns:serif="http://www.serif.com/" style="fill-rule:evenodd;clip-rule:evenodd;stroke-linejoin:round;stroke-miterlimit:2;">
    <g transform="matrix(1,0,0,1,-4705.1,-406.221)">
        <g transform="matrix(4.16667,0,0,4.16667,3946.36,0)">
            <g transform="matrix(0.198268,-0.980148,-0.980148,-0.198268,252.723,354.957)">
                <path d="M9.223,72.77L149.13,72.77L164.57,-3.558L-52.483,-3.659C-60.41,35.525 -30.751,72.26 9.223,72.77" style="fill:white;fill-rule:nonzero;"/>
            </g>
        </g>
        <g transform="matrix(4.16667,0,0,4.16667,3946.36,0)">
            <g transform="matrix(1,0,0,1,374.172,155.867)">
                <path d="M0,198.068C-11.67,198.068 -20.763,191.142 -21.618,177.738C-22.485,169.091 -20.763,161.311 -19.462,154.82L-18.595,149.195C-11.67,112.872 8.647,94.711 28.977,94.711C44.549,94.711 54.485,106.814 54.485,125.843C54.485,160.444 29.41,198.068 0,198.068M131.25,80.668C122.012,52.33 98.961,33.301 65.3,33.301C38.925,33.301 14.705,42.815 -0.434,56.22L-1.301,56.22L6.756,17.416C14.874,-21.69 -14.982,-58.374 -54.918,-58.374L-96.865,146.606C-100.322,162.599 -102.49,176.437 -102.49,191.142C-102.923,229.633 -76.97,256.442 -15.572,256.442C42.983,256.442 82.606,232.669 106.573,200.464C126.698,173.451 135.791,140.512 135.791,110.716C135.791,99.949 134.249,89.821 131.25,80.668" style="fill:white;fill-rule:nonzero;"/>
            </g>
        </g>
        <g transform="matrix(4.16667,0,0,4.16667,3946.36,0)">
            <g transform="matrix(1,0,0,1,653.886,345.382)">
                <path d="M0,-91.777C-7.352,-94.805 -15.567,-96.534 -28.973,-96.534C-73.516,-96.534 -97.732,-66.695 -97.732,-34.261C-97.732,-4.855 -76.111,5.955 -56.649,5.955C-38.055,5.955 -25.513,2.496 -13.404,-2.693L-12.541,54.824C-30.271,63.471 -53.622,66.931 -79.138,66.931C-131.465,66.931 -179.465,39.687 -179.465,-26.91C-179.465,-101.723 -117.625,-156.212 -28.973,-156.212C-28.973,-156.212 23.094,-158.708 0,-91.777" style="fill:white;fill-rule:nonzero;"/>
            </g>
        </g>
        <g transform="matrix(4.16667,0,0,4.16667,3946.36,0)">
            <g transform="matrix(1,0,0,1,240.839,496.956)">
                <path d="M0,-50.729L28.077,-50.729L26.568,-43.278L7.396,-43.278L4.679,-28.976L22.492,-28.976L21.057,-21.602L3.245,-21.602L-0.831,0L-9.661,0L0,-50.729Z" style="fill:white;fill-rule:nonzero;"/>
            </g>
        </g>
        <g transform="matrix(4.16667,0,0,4.16667,3946.36,0)">
            <g transform="matrix(1,0,0,1,286.422,474.828)">
                <path d="M0,7.603C0,12.645 2.717,16.182 7.17,16.182C13.736,16.182 18.114,7.15 18.114,-0.15C18.114,-3.915 16.454,-8.581 11.095,-8.581C4.075,-8.581 0,0.753 0,7.603M27.247,-0.15C27.247,12.269 18.492,22.956 5.963,22.956C-3.321,22.956 -9.058,16.559 -9.058,7.829C-9.058,-4.59 -0.378,-15.353 12.151,-15.353C22.039,-15.353 27.247,-8.279 27.247,-0.15" style="fill:white;fill-rule:nonzero;"/>
            </g>
        </g>
        <g transform="matrix(4.16667,0,0,4.16667,3946.36,0)">
            <g transform="matrix(1,0,0,1,328.005,459.476)">
                <path d="M0,37.481L4.303,14.901C5.283,9.708 5.736,4.138 6.189,0.827L13.813,0.827C13.585,3.311 13.359,5.869 12.982,8.579L13.208,8.579C15.699,3.611 19.699,0 24.757,0C25.36,0 26.04,0.074 26.644,0.148L24.907,8.73C24.455,8.654 23.851,8.579 23.247,8.579C16.982,8.579 12.982,14.901 11.548,22.728L8.755,37.481L0,37.481Z" style="fill:white;fill-rule:nonzero;"/>
            </g>
        </g>
        <g transform="matrix(4.16667,0,0,4.16667,3946.36,0)">
            <g transform="matrix(1,0,0,1,385.513,497.783)">
                <path d="M0,-47.566L-1.888,-37.481L6.416,-37.481L5.056,-30.707L-3.171,-30.707L-6.114,-15.879C-6.417,-14.149 -6.718,-12.268 -6.718,-10.686C-6.718,-8.73 -5.812,-7.451 -3.473,-7.451C-2.416,-7.451 -1.359,-7.451 -0.453,-7.601L-1.284,-0.753C-2.567,-0.299 -4.906,0 -7.02,0C-13.058,0 -15.775,-3.31 -15.775,-7.525C-15.775,-9.633 -15.549,-11.664 -14.945,-14.375L-11.775,-30.707L-16.757,-30.707L-15.474,-37.481L-10.492,-37.481L-8.982,-45.383L0,-47.566Z" style="fill:white;fill-rule:nonzero;"/>
            </g>
        </g>
        <g transform="matrix(4.16667,0,0,4.16667,3946.36,0)">
            <g transform="matrix(1,0,0,1,430.19,490.636)">
                <path d="M0,-24.012C-0.906,-24.237 -2.038,-24.388 -3.623,-24.388C-11.774,-24.388 -18.039,-15.282 -18.039,-6.927C-18.039,-3.088 -16.604,0.073 -12.755,0.073C-8.68,0.073 -3.698,-5.043 -1.962,-14.377L0,-24.012ZM-3.623,6.321C-3.547,4.137 -3.245,1.202 -2.943,-1.959L-3.17,-1.959C-6.793,4.816 -11.624,7.148 -16.303,7.148C-22.87,7.148 -27.171,2.031 -27.171,-5.345C-27.171,-17.838 -18.416,-31.16 -1.283,-31.16C2.718,-31.16 7.02,-30.408 9.813,-29.505L6.038,-10.388C4.981,-4.895 4.378,1.955 4.529,6.321L-3.623,6.321Z" style="fill:white;fill-rule:nonzero;"/>
            </g>
        </g>
        <g transform="matrix(4.16667,0,0,4.16667,3946.36,0)">
            <g transform="matrix(0.188643,-0.982046,-0.982046,-0.188643,487.689,484.618)">
                <path d="M-18.523,31.018L35.892,31.018L37.544,22.42L-16.857,22.345L-18.523,31.018Z" style="fill:white;fill-rule:nonzero;"/>
            </g>
        </g>
        <g transform="matrix(4.16667,0,0,4.16667,3946.36,0)">
            <g transform="matrix(1,0,0,1,503.544,491.162)">
                <path d="M0,-25.14C-5.508,-25.14 -9.132,-20.248 -10.189,-15.808C-1.132,-15.657 4.68,-16.936 4.68,-21.3C4.68,-23.709 2.793,-25.14 0,-25.14M8.378,3.688C4.756,5.569 -0.151,6.547 -4.604,6.547C-14.792,6.547 -19.699,0.376 -19.699,-8.582C-19.699,-19.645 -11.548,-31.687 1.132,-31.687C8.378,-31.687 12.982,-27.474 12.982,-21.377C12.982,-11.968 3.096,-8.958 -11.094,-9.258C-11.245,-7.979 -10.944,-5.495 -10.112,-4.065C-8.681,-1.582 -6.037,-0.302 -2.566,-0.302C1.586,-0.302 4.907,-1.357 7.549,-2.71L8.378,3.688Z" style="fill:white;fill-rule:nonzero;"/>
            </g>
        </g>
        <g transform="matrix(4.16667,0,0,4.16667,3946.36,0)">
            <g transform="matrix(1,0,0,1,527.467,465.646)">
                <path d="M0,25.967L14.566,10.085C17.661,6.775 19.926,4.742 22.944,2.032L23.019,1.807L5.886,1.807L7.32,-5.344L34.946,-5.344L33.889,0.302L19.623,15.882C16.302,19.419 14.114,21.526 11.245,24.011L11.245,24.159L29.888,24.159L28.455,31.311L-0.982,31.311L0,25.967Z" style="fill:white;fill-rule:nonzero;"/>
            </g>
        </g>
        <g transform="matrix(4.16667,0,0,4.16667,3946.36,0)">
            <g transform="matrix(1,0,0,1,600.901,490.636)">
                <path d="M0,-24.012C-0.906,-24.237 -2.038,-24.388 -3.624,-24.388C-11.775,-24.388 -18.039,-15.282 -18.039,-6.927C-18.039,-3.088 -16.606,0.073 -12.756,0.073C-8.681,0.073 -3.698,-5.043 -1.963,-14.377L0,-24.012ZM-3.624,6.321C-3.547,4.137 -3.246,1.202 -2.943,-1.959L-3.17,-1.959C-6.794,4.816 -11.624,7.148 -16.304,7.148C-22.869,7.148 -27.173,2.031 -27.173,-5.345C-27.173,-17.838 -18.416,-31.16 -1.283,-31.16C2.716,-31.16 7.018,-30.408 9.811,-29.505L6.037,-10.388C4.98,-4.895 4.377,1.955 4.528,6.321L-3.624,6.321Z" style="fill:white;fill-rule:nonzero;"/>
            </g>
        </g>
    </g>
</svg>
