<?xml version="1.0" encoding="UTF-8" standalone="no"?>
<!DOCTYPE svg PUBLIC "-//W3C//DTD SVG 1.1//EN" "http://www.w3.org/Graphics/SVG/1.1/DTD/svg11.dtd">
<svg width="100%" height="100%" viewBox="0 0 1891 467" version="1.1" xmlns="http://www.w3.org/2000/svg" xmlns:xlink="http://www.w3.org/1999/xlink" xml:space="preserve" xmlns:serif="http://www.serif.com/" style="fill-rule:evenodd;clip-rule:evenodd;stroke-linejoin:round;stroke-miterlimit:2;">
    <g transform="matrix(1,0,0,1,-8701.28,-1351.97)">
        <g id="Page-3" serif:id="Page 3" transform="matrix(4.16667,0,0,4.16667,7892.72,0)">
            <rect x="0" y="0" width="841.89" height="595.276" style="fill:none;"/>
            <g transform="matrix(0.198268,-0.980148,-0.980148,-0.198268,213.632,395.84)">
                <path d="M2.557,20.172L41.337,20.172L45.617,-0.986L-14.548,-1.014C-16.745,9.848 -8.524,20.03 2.557,20.172" style="fill:white;fill-rule:nonzero;"/>
            </g>
            <g transform="matrix(1,0,0,1,247.297,340.654)">
                <path d="M0,54.902C-3.235,54.902 -5.756,52.982 -5.993,49.267C-6.233,46.87 -5.756,44.714 -5.396,42.914L-5.154,41.355C-3.235,31.287 2.396,26.253 8.031,26.253C12.348,26.253 15.103,29.607 15.103,34.882C15.103,44.473 8.151,54.902 0,54.902M36.381,22.36C33.82,14.506 27.431,9.23 18.1,9.23C10.789,9.23 4.075,11.868 -0.121,15.584L-0.361,15.584L1.872,4.828C4.122,-6.012 -4.153,-16.181 -15.223,-16.181L-26.851,40.637C-27.809,45.071 -28.409,48.906 -28.409,52.982C-28.529,63.652 -21.336,71.083 -4.316,71.083C11.914,71.083 22.897,64.493 29.54,55.566C35.118,48.079 37.639,38.948 37.639,30.689C37.639,27.705 37.212,24.897 36.381,22.36" style="fill:white;fill-rule:nonzero;"/>
            </g>
            <g transform="matrix(1,0,0,1,324.83,393.186)">
                <path d="M0,-25.44C-2.038,-26.279 -4.315,-26.758 -8.031,-26.758C-20.378,-26.758 -27.091,-18.488 -27.091,-9.497C-27.091,-1.346 -21.098,1.651 -15.703,1.651C-10.549,1.651 -7.072,0.692 -3.716,-0.747L-3.477,15.196C-8.391,17.593 -14.864,18.552 -21.937,18.552C-36.44,18.552 -49.746,11 -49.746,-7.46C-49.746,-28.197 -32.604,-43.3 -8.031,-43.3C-8.031,-43.3 6.4,-43.992 0,-25.44" style="fill:white;fill-rule:nonzero;"/>
            </g>
            <g transform="matrix(1,0,0,1,364.094,401.425)">
                <path d="M0,-38.916L21.539,-38.916L20.381,-33.2L5.674,-33.2L3.59,-22.229L17.255,-22.229L16.154,-16.572L2.489,-16.572L-0.637,0L-7.411,0L0,-38.916Z" style="fill:white;fill-rule:nonzero;"/>
            </g>
            <g transform="matrix(1,0,0,1,399.063,384.449)">
                <path d="M0,5.833C0,9.701 2.084,12.415 5.5,12.415C10.537,12.415 13.896,5.486 13.896,-0.114C13.896,-3.002 12.622,-6.581 8.511,-6.581C3.126,-6.581 0,0.579 0,5.833M20.901,-0.114C20.901,9.413 14.186,17.61 4.573,17.61C-2.548,17.61 -6.949,12.704 -6.949,6.006C-6.949,-3.521 -0.291,-11.777 9.321,-11.777C16.906,-11.777 20.901,-6.35 20.901,-0.114" style="fill:white;fill-rule:nonzero;"/>
            </g>
            <g transform="matrix(1,0,0,1,430.962,372.671)">
                <path d="M0,28.754L3.301,11.432C4.054,7.448 4.4,3.176 4.748,0.635L10.596,0.635C10.422,2.541 10.249,4.503 9.959,6.582L10.133,6.582C12.043,2.772 15.112,0 18.992,0C19.455,0 19.977,0.058 20.439,0.114L19.107,6.698C18.761,6.64 18.297,6.582 17.833,6.582C13.028,6.582 9.959,11.432 8.859,17.437L6.717,28.754L0,28.754Z" style="fill:white;fill-rule:nonzero;"/>
            </g>
            <g transform="matrix(1,0,0,1,475.078,402.059)">
                <path d="M0,-36.489L-1.448,-28.753L4.922,-28.753L3.879,-23.555L-2.433,-23.555L-4.689,-12.181C-4.922,-10.853 -5.153,-9.411 -5.153,-8.197C-5.153,-6.697 -4.458,-5.716 -2.664,-5.716C-1.853,-5.716 -1.042,-5.716 -0.348,-5.831L-0.984,-0.577C-1.969,-0.229 -3.764,0 -5.385,0C-10.017,0 -12.102,-2.539 -12.102,-5.772C-12.102,-7.39 -11.928,-8.947 -11.464,-11.026L-9.032,-23.555L-12.854,-23.555L-11.87,-28.753L-8.048,-28.753L-6.891,-34.814L0,-36.489Z" style="fill:white;fill-rule:nonzero;"/>
            </g>
            <g transform="matrix(1,0,0,1,509.351,396.575)">
                <path d="M0,-18.419C-0.695,-18.592 -1.563,-18.707 -2.779,-18.707C-9.032,-18.707 -13.838,-11.722 -13.838,-5.313C-13.838,-2.367 -12.737,0.058 -9.785,0.058C-6.658,0.058 -2.837,-3.867 -1.505,-11.028L0,-18.419ZM-2.779,4.851C-2.721,3.176 -2.489,0.924 -2.258,-1.501L-2.432,-1.501C-5.211,3.695 -8.917,5.484 -12.506,5.484C-17.544,5.484 -20.844,1.56 -20.844,-4.1C-20.844,-13.683 -14.128,-23.903 -0.984,-23.903C2.085,-23.903 5.385,-23.325 7.527,-22.633L4.632,-7.968C3.822,-3.754 3.358,1.501 3.475,4.851L-2.779,4.851Z" style="fill:white;fill-rule:nonzero;"/>
            </g>
            <g transform="matrix(0.188629,-0.982048,-0.982048,-0.188629,553.461,391.96)">
                <path d="M-14.209,23.796L27.534,23.796L28.801,17.198L-12.931,17.142L-14.209,23.796Z" style="fill:white;fill-rule:nonzero;"/>
            </g>
            <g transform="matrix(1,0,0,1,565.623,396.98)">
                <path d="M0,-19.285C-4.226,-19.285 -7.005,-15.533 -7.816,-12.127C-0.868,-12.011 3.59,-12.992 3.59,-16.341C3.59,-18.188 2.143,-19.285 0,-19.285M6.428,2.829C3.648,4.273 -0.115,5.023 -3.532,5.023C-11.347,5.023 -15.111,0.288 -15.111,-6.584C-15.111,-15.07 -8.858,-24.308 0.869,-24.308C6.428,-24.308 9.96,-21.076 9.96,-16.399C9.96,-9.181 2.375,-6.872 -8.51,-7.102C-8.626,-6.12 -8.396,-4.216 -7.758,-3.118C-6.658,-1.214 -4.631,-0.231 -1.969,-0.231C1.217,-0.231 3.765,-1.041 5.791,-2.079L6.428,2.829Z" style="fill:white;fill-rule:nonzero;"/>
            </g>
            <g transform="matrix(1,0,0,1,583.975,377.406)">
                <path d="M0,19.92L11.174,7.736C13.548,5.197 15.285,3.639 17.601,1.56L17.658,1.386L4.515,1.386L5.615,-4.1L26.808,-4.1L25.996,0.232L15.053,12.184C12.505,14.897 10.827,16.513 8.626,18.419L8.626,18.533L22.927,18.533L21.828,24.02L-0.754,24.02L0,19.92Z" style="fill:white;fill-rule:nonzero;"/>
            </g>
            <g transform="matrix(1,0,0,1,640.308,396.575)">
                <path d="M0,-18.419C-0.694,-18.592 -1.562,-18.707 -2.779,-18.707C-9.033,-18.707 -13.838,-11.722 -13.838,-5.313C-13.838,-2.367 -12.738,0.058 -9.785,0.058C-6.658,0.058 -2.837,-3.867 -1.506,-11.028L0,-18.419ZM-2.779,4.851C-2.721,3.176 -2.49,0.924 -2.258,-1.501L-2.432,-1.501C-5.211,3.695 -8.917,5.484 -12.507,5.484C-17.543,5.484 -20.845,1.56 -20.845,-4.1C-20.845,-13.683 -14.127,-23.903 -0.984,-23.903C2.084,-23.903 5.384,-23.325 7.526,-22.633L4.632,-7.968C3.82,-3.754 3.357,1.501 3.474,4.851L-2.779,4.851Z" style="fill:white;fill-rule:nonzero;"/>
            </g>
            <g transform="matrix(1,0,0,1,341.559,436.46)">
                <path d="M0,-109.711C0.359,-100.568 0.528,-91.426 0.668,-82.283C0.812,-73.141 0.798,-63.998 0.871,-54.856C0.803,-45.713 0.81,-36.57 0.671,-27.428L0.428,-13.714C0.283,-9.143 0.198,-4.571 0,0C-0.197,-4.571 -0.282,-9.143 -0.428,-13.714L-0.671,-27.428C-0.81,-36.57 -0.803,-45.713 -0.871,-54.856C-0.798,-63.998 -0.812,-73.141 -0.668,-82.283C-0.528,-91.426 -0.359,-100.568 0,-109.711" style="fill:white;fill-rule:nonzero;"/>
            </g>
        </g>
    </g>
</svg>
